<svg width="245" height="236" viewBox="0 0 245 236" fill="none" xmlns="http://www.w3.org/2000/svg">
<path d="M0 13.593L1.23627e-05 101.676C1.27306e-05 104.684 2.44688 107.118 5.45644 107.105L45.5678 106.926C49.7387 106.908 52.3335 102.393 50.2481 98.7828L45.0493 89.7834C42.7992 85.8884 37.8157 84.5538 33.9184 86.8026L33.366 87.1214C29.514 89.344 24.5884 88.025 22.3644 84.1752C21.2116 82.1796 20.9699 79.7859 21.7004 77.6003L30.0423 52.6428C31.3469 48.7398 35.3597 46.4227 39.3945 47.2427L65.2175 52.4905C67.4779 52.9499 69.4327 54.3562 70.5861 56.3527C72.8095 60.2016 71.49 65.1231 67.639 67.3453L67.0848 67.665C63.1875 69.9138 61.8522 74.8944 64.1023 78.7895L69.2235 87.6545C71.309 91.2646 76.5187 91.2762 78.6203 87.6754L98.673 53.3172C100.189 50.7191 99.3031 47.384 96.6968 45.88L20.3709 1.83866C11.3172 -3.38551 3.0967e-05 3.1447 0 13.593Z" transform="translate(41.1514)" fill="#34C88A"/>
<path d="M197.059 103.85L120.733 59.8084C118.126 58.3045 114.793 59.205 113.3 61.8166L93.3991 96.6233C91.3297 100.243 93.9446 104.746 98.1156 104.746H111.229C114.229 104.746 116.661 102.315 116.661 99.3169V93.3449C116.661 90.3464 119.094 87.9157 122.094 87.9157L125.895 87.9157C127.45 87.9157 128.931 88.5819 129.962 89.7454L149.794 112.126C151.613 114.18 151.614 117.268 149.796 119.322L129.962 141.732C128.931 142.897 127.45 143.564 125.893 143.564H122.094C119.094 143.564 116.661 141.133 116.661 138.135V132.163C116.661 129.165 114.229 126.734 111.229 126.734H98.2708C94.0998 126.734 91.4849 131.237 93.5543 134.857L113.3 169.392C114.793 172.003 118.126 172.904 120.733 171.4L197.059 127.359C206.112 122.134 206.112 109.074 197.059 103.85Z" transform="translate(41.1514)" fill="#34C88A"/>
<path d="M13.5989 99.3709H101.72C104.729 99.3709 107.165 96.925 107.151 93.9168L106.973 53.8228C106.954 49.6536 102.437 47.0599 98.8254 49.1445L87.4703 55.6985C84.8725 57.1979 83.9824 60.5188 85.4823 63.1159L88.4696 68.2886C89.9694 70.8856 89.0793 74.2065 86.4815 75.7059L83.1897 77.6059C81.8431 78.3831 80.2278 78.5462 78.753 78.0536L50.3858 68.5802C47.7826 67.7109 46.2373 65.0368 46.7841 62.3481L52.7483 33.0256C53.0584 31.5011 54.0076 30.1829 55.3551 29.4051L58.6453 27.5061C61.2431 26.0067 64.5649 26.8965 66.0648 29.4936L69.0521 34.6662C70.552 37.2633 73.8738 38.1531 76.4716 36.6537L87.6923 30.1773C91.304 28.0927 91.3156 22.8852 87.7133 20.7846L53.3403 0.74051C50.741 -0.775221 47.4045 0.110594 45.8999 2.71585L1.83945 79.0088C1.83945 79.0088 1.83945 79.0088 1.83945 79.0088C-3.38697 88.0586 3.14606 99.3709 13.5989 99.3709Z" transform="matrix(0.86615 -0.499784 0.500216 0.865901 0 149.955)" fill="#163F59"/>
</svg>
