<svg width="58" height="60" viewBox="0 0 58 60" fill="none" xmlns="http://www.w3.org/2000/svg">
<path d="M10.7845 1.56676L0 20.2681L11.6171 26.9143V20.1172H7.86131V18.049L13.5224 14.3691L19.1912 18.049V20.1172H15.4354V26.8785L26.9899 20.2681L16.2055 1.56676C15.0008 -0.522253 11.9891 -0.522253 10.7845 1.56676Z" transform="matrix(-0.866537 -0.499112 0.500886 -0.865513 23.3877 59.5216)" fill="#163F59"/>
<path d="M0 24.7066L0.0219727 3.13768C0.0244141 0.728366 2.63721 -0.780133 4.7251 0.422381L23.4155 11.1877L16.6904 22.6898L13.3159 16.8447L16.5742 14.9635L15.542 13.1756L8.78711 12.8338L5.7124 18.8506L6.74463 20.6385L10.0029 18.7573L13.3955 24.6333L0 24.7066Z" transform="translate(10.1543)" fill="#34C88A"/>
<path d="M26.7358 13.0714L45.4263 23.8368C47.5137 25.0393 47.5107 28.0509 45.4204 29.2578L26.708 40.0613L20.1099 28.5136L26.8711 28.5067L26.8672 32.2625L28.9351 32.2604L32.6211 26.5878L28.9468 20.9305L26.8789 20.9326L26.875 24.6884L20.0776 24.6953L26.7358 13.0714Z" transform="translate(10.1543)" fill="#34C88A"/>
</svg>